<svg width="1080" height="1080" viewBox="0 0 1080 1080" fill="none" xmlns="http://www.w3.org/2000/svg">
<mask id="mask0" mask-type="alpha" maskUnits="userSpaceOnUse" x="0" y="0" width="1080" height="1080">
<rect width="1080" height="1080" rx="230" fill="white"/>
</mask>
<g mask="url(#mask0)">
<rect width="1080" height="1080" rx="230" fill="white"/>
<path d="M563 1086L64 503.5L1005.5 338.5L1086 445V1086H563Z" fill="#C4C4C4" fill-opacity="0.31"/>
<g filter="url(#filter0_d)">
<rect x="47" y="317" width="986" height="218" rx="76" fill="url(#paint0_linear)"/>
</g>
<path d="M885.5 1106.5L496 626.5L576 601.5L981.5 1106.5H885.5Z" fill="#C4C4C4"/>
<path d="M529.386 571.34C534.972 564.846 545.028 564.846 550.614 571.34L583.326 609.371C591.133 618.447 584.684 632.5 572.712 632.5H507.288C495.316 632.5 488.867 618.447 496.675 609.371L529.386 571.34Z" fill="black"/>
</g>
<defs>
<filter id="filter0_d" x="-5" y="296" width="1098" height="330" filterUnits="userSpaceOnUse" color-interpolation-filters="sRGB">
<feFlood flood-opacity="0" result="BackgroundImageFix"/>
<feColorMatrix in="SourceAlpha" type="matrix" values="0 0 0 0 0 0 0 0 0 0 0 0 0 0 0 0 0 0 127 0"/>
<feOffset dx="4" dy="35"/>
<feGaussianBlur stdDeviation="28"/>
<feColorMatrix type="matrix" values="0 0 0 0 0 0 0 0 0 0 0 0 0 0 0 0 0 0 0.24 0"/>
<feBlend mode="normal" in2="BackgroundImageFix" result="effect1_dropShadow"/>
<feBlend mode="normal" in="SourceGraphic" in2="effect1_dropShadow" result="shape"/>
</filter>
<linearGradient id="paint0_linear" x1="277.5" y1="424.687" x2="516.5" y2="424.687" gradientUnits="userSpaceOnUse">
<stop offset="0.34375" stop-color="#FF3838"/>
<stop offset="0.34385" stop-color="#3EEEEE"/>
</linearGradient>
</defs>
</svg>
